# xmcd
#
# Track frame offsets: 
#        150
#        13086
#        28249
#        42381
#        58038
#        73856
#        85686
#        98634
#        120183
#        141938
#        151679
#        163779
#        175743
#        186088
#        198047
#        217368
#        231459
#        251654
#
# Disc length: 3630 seconds
#
# Revision: 14
# Processed by: cddbd v1.5.2PL0 Copyright (c) Steve Scherf et al.
# Submitted via: ExactAudioCopy v1.3
#
DISCID=fa0e2c12
DTITLE=B.B. King - Let the Good Times Roll: The Music of Louis Jordan
DYEAR=1999
DGENRE=Blues
TTITLE0=Ain't Nobody Here But Us Chickens
TTITLE1=Is You Is, or is You Ain't (My Baby)?
TTITLE2=Beware, Brother, Beware
TTITLE3=Somebody Done Changed the Lock on My Door
TTITLE4=Ain't That Just Like a Woman
TTITLE5=Cho Choo Ch'Boogie
TTITLE6=Buzz Me
TTITLE7=Early in the Mornin'
TTITLE8=I'm Gonna Move to the Outskirts of Town
TTITLE9=Jack, You're Dead!
TTITLE10=Knock Me a Kiss
TTITLE11=Let the Good Times Roll
TTITLE12=Caldonia
TTITLE13=It's a Great, Great Pleasure
TTITLE14=Rusty Dusty Blues (Mama Mama Blues)
TTITLE15=Sure Had a Wonderful Time Last Night
TTITLE16=Saturday Night Fish Fry
TTITLE17=Nobody Knows You When You're Down and Out
EXTD=
EXTT0=
EXTT1=
EXTT2=
EXTT3=
EXTT4=
EXTT5=
EXTT6=
EXTT7=
EXTT8=
EXTT9=
EXTT10=
EXTT11=
EXTT12=
EXTT13=
EXTT14=
EXTT15=
EXTT16=
EXTT17=
PLAYORDER=
